<?xml version="1.0" standalone="no"?>
<!DOCTYPE svg PUBLIC "-//W3C//DTD SVG 20010904//EN"
 "http://www.w3.org/TR/2001/REC-SVG-20010904/DTD/svg10.dtd">
<svg version="1.0" xmlns="http://www.w3.org/2000/svg"
 width="1263.000000pt" height="1263.000000pt" viewBox="0 0 1263.000000 1263.000000"
 preserveAspectRatio="xMidYMid meet">
<metadata>
Created by potrace 1.14, written by Peter Selinger 2001-2017
</metadata>
<g transform="translate(0.000000,1263.000000) scale(0.100000,-0.100000)"
fill="#000000" stroke="none">
<path d="M6160 11099 c-36 -5 -119 -16 -185 -25 -193 -25 -359 -57 -460 -89
-22 -7 -69 -21 -105 -31 -105 -28 -266 -83 -328 -110 -31 -15 -95 -42 -141
-60 -78 -32 -229 -109 -276 -140 -11 -8 -94 -63 -185 -123 -292 -193 -543
-452 -672 -691 -50 -93 -65 -140 -98 -300 -34 -168 -57 -236 -100 -300 -78
-115 -126 -245 -145 -394 -14 -119 -14 -118 -117 -287 -85 -142 -118 -256
-118 -412 0 -51 5 -110 11 -132 6 -22 14 -188 19 -370 7 -304 31 -669 46 -705
4 -8 10 -143 14 -300 8 -284 21 -519 41 -701 17 -170 22 -669 8 -834 -7 -82
-13 -188 -13 -235 -1 -130 31 -425 54 -515 54 -209 176 -439 304 -574 73 -77
218 -174 294 -198 74 -24 100 -52 167 -185 32 -62 71 -135 88 -163 106 -171
289 -370 431 -468 68 -48 303 -170 396 -207 117 -46 384 -106 626 -140 136
-19 184 -21 475 -17 221 3 362 9 444 20 66 9 152 21 190 26 198 28 591 156
735 241 241 142 470 331 575 475 16 22 43 56 60 75 17 19 52 68 78 108 27 40
58 77 68 83 14 7 18 16 14 30 -8 23 -5 23 31 4 40 -21 226 -20 307 1 71 18
244 95 302 134 22 15 45 29 50 33 7 4 10 -15 7 -57 -5 -69 10 -96 51 -96 81 2
187 139 270 350 58 147 93 364 117 730 5 80 12 163 15 185 4 22 13 105 20 185
32 325 54 509 83 675 6 33 18 110 27 170 8 61 20 137 26 170 11 61 17 113 44
355 8 74 21 187 29 250 55 425 58 476 54 920 l-4 415 -36 135 c-20 74 -57 196
-82 271 -25 75 -50 171 -55 215 -6 43 -15 114 -21 158 -25 195 -98 403 -245
696 -110 219 -170 318 -295 484 -106 141 -386 428 -495 506 -33 24 -64 49 -70
56 -10 12 -112 84 -169 118 -17 11 -95 62 -174 114 -142 94 -258 151 -441 219
-53 19 -125 46 -161 60 -182 72 -493 138 -755 162 -66 6 -174 16 -240 23 -160
15 -306 18 -385 7z m-495 -1758 c28 -5 244 -10 480 -11 237 0 444 -3 460 -6
17 -3 183 -7 370 -9 691 -9 749 -11 773 -24 13 -7 40 -11 60 -10 20 1 51 -5
69 -14 18 -10 45 -18 60 -19 15 -1 31 -7 35 -13 7 -10 11 -11 43 -14 8 0 15
-7 15 -14 0 -7 24 -25 53 -40 95 -50 224 -159 301 -256 61 -77 145 -201 170
-251 84 -169 169 -503 191 -755 7 -69 27 -187 45 -255 55 -211 98 -413 125
-595 9 -60 21 -130 28 -155 15 -56 13 -280 -3 -375 -6 -38 -18 -113 -25 -165
-16 -113 -31 -191 -44 -234 -5 -17 -13 -50 -16 -73 -4 -24 -11 -45 -16 -49 -5
-3 -9 -16 -9 -29 0 -13 -6 -39 -14 -57 -18 -45 -36 -97 -45 -133 -11 -43 -152
-325 -163 -325 -5 0 -15 -15 -23 -34 -8 -19 -26 -47 -40 -62 -14 -15 -25 -33
-25 -40 0 -7 -26 -40 -57 -73 -32 -34 -69 -73 -83 -89 -78 -85 -190 -166 -289
-208 -31 -14 -65 -29 -76 -34 -35 -15 -166 -38 -285 -50 -63 -6 -133 -15 -155
-20 -61 -14 -67 -13 -53 9 31 49 -50 169 -146 218 -74 38 -120 52 -236 74 -95
19 -165 21 -765 29 -472 6 -672 5 -702 -3 -35 -9 -51 -8 -90 6 -43 15 -70 16
-265 7 -120 -5 -239 -15 -265 -20 -129 -29 -254 -80 -301 -124 -40 -36 -75
-114 -67 -152 l6 -33 -43 19 c-24 11 -55 20 -69 20 -14 0 -45 6 -70 14 -24 7
-66 19 -94 25 -182 44 -342 172 -439 353 -52 97 -147 352 -151 407 -4 48 -16
146 -25 201 -5 30 -12 116 -15 190 -8 187 -10 1014 -2 1075 3 28 9 102 12 165
4 63 11 131 16 151 5 19 13 76 19 125 5 49 17 125 25 169 25 127 56 296 64
345 4 25 13 63 19 85 6 22 21 80 33 128 11 49 31 118 43 155 30 86 121 277
152 319 13 17 24 36 24 42 0 6 15 27 33 47 17 21 41 52 52 70 37 61 139 156
236 220 53 35 105 67 115 71 11 3 33 17 50 30 17 12 46 25 65 28 19 4 50 10
69 16 19 5 69 14 110 19 91 11 675 4 745 -9z m-1966 -2652 c22 -21 23 -26 17
-118 -12 -180 -17 -211 -33 -211 -12 0 -13 -6 -8 -22 5 -13 11 -207 15 -433 4
-225 10 -431 15 -457 9 -61 -5 -63 -39 -5 -82 139 -127 391 -161 903 -7 97 14
235 39 264 8 8 17 25 20 37 8 25 62 63 92 63 11 0 31 -10 43 -21z m5421 -125
c0 -19 20 -18 81 7 65 25 91 16 152 -51 65 -72 82 -140 81 -315 -1 -86 -8
-173 -18 -225 -28 -135 -94 -388 -116 -437 -27 -62 -26 -93 7 -119 22 -18 27
-29 25 -60 -2 -22 -5 -47 -8 -56 -7 -23 -50 -24 -93 -2 -29 15 -34 14 -57 -1
-14 -9 -28 -23 -31 -30 -3 -8 -20 -24 -39 -35 -28 -18 -42 -20 -94 -14 -58 6
-60 8 -60 35 0 16 9 55 19 86 31 91 48 165 50 208 1 22 6 54 11 70 18 58 32
223 45 550 15 344 21 419 36 409 5 -3 9 -12 9 -20z m-3920 -1766 c32 -14 49
-20 115 -34 11 -3 40 -9 65 -15 25 -5 110 -21 190 -34 80 -14 172 -29 205 -35
33 -6 182 -11 330 -12 273 -1 305 2 585 48 198 32 226 37 250 46 14 6 36 12
49 14 13 3 39 11 59 19 44 19 256 20 325 2 l48 -12 -31 -40 c-18 -22 -72 -120
-121 -217 -82 -164 -95 -183 -165 -253 -42 -42 -94 -85 -115 -95 -21 -11 -41
-24 -44 -30 -11 -17 -96 -57 -174 -80 -62 -19 -88 -22 -159 -17 -63 5 -90 11
-106 25 -12 10 -37 28 -57 40 -21 13 -43 38 -54 61 -20 45 -104 121 -132 121
-11 0 -23 4 -29 10 -13 13 -135 30 -224 29 -175 0 -280 -51 -346 -167 -11 -21
-39 -45 -69 -60 -44 -24 -62 -27 -140 -27 -87 1 -93 2 -175 45 -61 32 -105 65
-160 120 -96 97 -114 122 -145 206 -86 226 -81 216 -132 287 -54 77 -51 79
150 75 134 -2 180 -7 207 -20z"/>
<path d="M5120 8313 c-80 -13 -169 -37 -195 -53 -16 -10 -55 -25 -86 -34 -31
-9 -62 -22 -68 -30 -7 -8 -35 -22 -62 -31 -27 -9 -51 -21 -54 -26 -3 -5 -38
-30 -77 -56 -39 -27 -82 -55 -96 -65 -87 -58 -274 -246 -312 -313 -36 -62 -42
-141 -12 -147 21 -5 72 11 72 22 0 14 161 115 240 150 41 18 109 50 151 70 42
21 110 47 150 60 70 21 84 22 275 15 223 -8 249 -3 278 53 8 16 22 35 32 43
56 46 82 192 47 270 -14 33 -24 41 -77 59 -56 19 -139 24 -206 13z"/>
<path d="M6960 8279 c-72 -23 -85 -30 -104 -62 -27 -47 -34 -152 -11 -177 9
-10 14 -24 10 -29 -12 -20 87 -141 132 -162 49 -22 140 -29 244 -17 85 10 208
-4 309 -34 36 -10 135 -51 220 -89 85 -39 171 -78 190 -86 65 -30 95 -46 177
-100 68 -46 87 -54 119 -51 35 3 39 6 45 38 6 28 2 45 -19 83 -31 58 -124 153
-217 222 -37 28 -79 62 -94 76 -14 15 -48 39 -76 54 -27 16 -54 33 -60 39 -11
13 -112 76 -121 76 -2 0 -14 9 -26 20 -12 11 -27 20 -33 20 -7 0 -42 16 -78
35 -36 19 -71 35 -78 35 -6 0 -45 16 -85 35 -129 62 -357 100 -444 74z"/>
<path d="M4659 7161 c-103 -26 -187 -73 -265 -148 -39 -37 -82 -78 -95 -89
-13 -12 -35 -43 -48 -70 -13 -27 -33 -59 -44 -71 -17 -19 -26 -47 -53 -158 -7
-27 13 -78 29 -72 6 2 12 17 11 33 0 17 7 34 17 41 9 7 20 28 23 48 4 19 13
35 20 35 12 0 46 56 46 75 0 12 222 225 230 220 4 -3 13 2 20 10 7 8 20 15 30
15 10 0 23 6 29 14 15 18 133 55 192 60 25 2 55 9 66 14 21 12 127 1 159 -16
11 -5 42 -13 69 -17 163 -23 335 -188 399 -382 25 -75 38 -66 17 10 -52 182
-166 312 -352 402 -132 63 -354 84 -500 46z"/>
<path d="M7305 7103 c-118 -17 -157 -29 -255 -76 -93 -45 -195 -137 -243 -219
-35 -59 -70 -174 -62 -205 6 -25 6 -24 25 13 11 21 20 46 20 55 0 21 47 116
61 125 6 3 18 22 26 41 8 19 16 33 19 30 3 -2 21 11 41 29 20 19 41 34 48 34
7 0 18 7 25 16 17 19 88 54 112 54 11 0 33 7 50 16 22 11 66 17 157 19 69 2
113 1 96 -1 -52 -8 -158 -45 -205 -71 -83 -47 -141 -116 -180 -214 -30 -74
-40 -260 -16 -284 9 -9 16 -27 16 -39 0 -13 7 -29 15 -36 8 -7 15 -20 15 -29
0 -22 78 -110 131 -146 40 -28 48 -30 138 -30 60 0 124 7 169 19 64 16 71 20
55 31 -17 13 -17 15 7 40 42 45 107 78 138 70 15 -4 30 -11 33 -17 11 -17 -2
-47 -22 -53 -10 -4 -19 -11 -19 -16 0 -12 34 -3 75 20 37 20 99 139 116 220
19 93 -6 235 -53 303 -10 14 -18 30 -18 34 0 5 -19 28 -42 51 -46 47 -32 62
19 19 15 -13 42 -30 58 -39 40 -21 174 -159 221 -227 21 -30 52 -82 68 -114
17 -32 36 -59 41 -58 6 0 14 14 19 30 7 24 4 36 -12 59 -11 15 -25 47 -31 69
-6 22 -20 49 -30 58 -11 10 -25 32 -32 49 -21 53 -57 93 -156 178 -185 158
-407 225 -638 192z m253 -79 c32 -9 62 -20 67 -24 6 -4 24 -11 41 -14 18 -4
40 -16 50 -27 20 -22 8 -25 -21 -6 -25 17 -128 54 -175 63 -19 3 -42 10 -50
15 -26 15 27 11 88 -7z m-217 -180 c26 -24 42 -76 30 -105 -20 -53 -85 -88
-125 -67 -48 24 -66 50 -66 94 0 36 5 47 37 74 30 27 42 31 71 26 19 -3 43
-13 53 -22z"/>
<path d="M4781 7055 c-127 -51 -194 -111 -245 -220 -35 -72 -45 -126 -46 -226
0 -65 4 -88 14 -92 13 -5 26 -50 27 -89 0 -10 8 -22 17 -27 32 -17 224 -81
286 -95 88 -21 212 -31 220 -18 3 5 -6 13 -20 16 l-26 7 38 35 c41 36 92 64
117 64 44 0 44 -69 0 -89 -32 -14 -23 -26 12 -17 41 10 102 84 136 164 29 70
30 79 26 180 -4 115 -16 173 -41 201 -9 10 -16 23 -16 30 0 19 -81 109 -120
134 -77 48 -143 69 -223 72 -67 2 -89 -2 -156 -30z m41 -164 c39 -34 43 -86
12 -128 -59 -78 -174 -37 -174 63 0 36 5 46 33 68 44 35 88 34 129 -3z"/>
<path d="M5595 5511 c-12 -20 14 -87 50 -129 18 -20 30 -43 28 -49 -6 -16 12
-17 39 -2 46 25 147 -35 135 -81 -4 -15 0 -20 16 -21 65 -4 97 -8 142 -17 27
-6 54 -8 60 -4 5 3 22 5 37 4 31 -3 130 39 162 68 12 10 37 32 56 48 29 25 32
32 19 37 -9 3 -34 -1 -55 -10 -22 -10 -66 -23 -99 -30 -67 -14 -245 -18 -279
-6 -11 5 -54 19 -94 32 -58 19 -85 35 -126 74 -29 27 -59 61 -67 74 -12 18
-18 21 -24 12z"/>
<path d="M3570 6471 c0 -5 7 -11 15 -15 8 -3 15 -11 15 -19 0 -7 14 -26 30
-42 40 -38 40 -12 0 43 -27 38 -60 56 -60 33z"/>
<path d="M9253 6307 c-29 -20 -78 -82 -78 -98 0 -5 -6 -14 -12 -20 -15 -15
-17 -39 -5 -39 5 0 18 18 31 40 12 21 32 47 44 58 67 56 84 105 20 59z"/>
</g>
</svg>
