<?xml version="1.0" encoding="UTF-8"?>
<!-- Generated by Pixelmator Pro 3.6.13 -->
<svg width="400" height="141" viewBox="0 0 400 141" xmlns="http://www.w3.org/2000/svg">
    <g id="Background">
        <path id="Path" fill="#f26522" stroke="none" d="M 0 0 L 400 0 L 400 141 L 0 141 Z"/>
    </g>
    <g id="x33D">
        <path id="path1" fill="#263238" stroke="none" opacity="0.5" d="M 400 0 L 400 141 L 0 141 L 9.090909 131.903229 L 390.909088 131.903229 L 390.909088 9.096771 L 400 0 Z"/>
        <path id="path2" fill="#ffffff" stroke="none" opacity="0.5" d="M 400 0 L 390.909088 9.096771 L 9.090909 9.096771 L 9.090909 131.903229 L 0 141 L 0 0 L 400 0 Z"/>
    </g>
    <g id="Text">
        <path id="path3" fill="#ffffff" stroke="none" d="M 148.363632 48.895164 L 143.22728 48.895164 L 143.22728 60.448067 L 138.545456 60.448067 L 138.545456 31.975166 L 148.363632 31.975166 C 155.136368 31.975166 158.409088 35.841293 158.409088 40.435158 C 158.409088 44.483223 155.772736 48.849678 148.363632 48.849678 Z M 148.363632 45.074516 C 152 45.074516 153.636368 43.300644 153.636368 40.435158 C 153.636368 37.569679 152 35.750328 148.363632 35.750328 L 143.22728 35.750328 L 143.22728 45.02903 L 148.363632 45.02903 Z"/>
        <path id="path4" fill="#ffffff" stroke="none" d="M 172.681824 60.811928 C 166.272736 60.811928 161.363632 56.218071 161.363632 49.122574 C 161.363632 42.027092 166.454544 37.478706 172.863632 37.478706 C 179.27272 37.478706 184.363647 42.027092 184.363647 49.122574 C 184.363647 56.218071 179.136368 60.811928 172.681824 60.811928 Z M 172.681824 56.76387 C 176.136368 56.76387 179.590897 54.26226 179.590897 49.168068 C 179.590897 44.073868 176.27272 41.572258 172.77272 41.572258 C 169.272736 41.572258 166.090912 44.028389 166.090912 49.168068 C 166.090912 54.307739 169.136353 56.76387 172.636368 56.76387 Z"/>
        <path id="path5" fill="#ffffff" stroke="none" d="M 186.318192 37.888062 L 191.045456 37.888062 L 195.77272 56.036125 L 200.545456 37.888062 L 205.409088 37.888062 L 210 55.94516 L 214.681808 37.888062 L 219.272736 37.888062 L 212.272736 60.448067 L 207.363632 60.448067 L 202.818176 43.800972 L 198.27272 60.448067 L 193.363647 60.448067 L 186.318192 37.888062 Z"/>
        <path id="path6" fill="#ffffff" stroke="none" d="M 232.409088 60.811928 C 225.954544 60.811928 221.136368 56.218071 221.136368 49.122574 C 221.136368 42.027092 225.727264 37.478706 232.409088 37.478706 C 239.090897 37.478706 243.363647 41.936134 243.363647 48.576775 C 243.363647 49.349998 243.363647 50.077744 243.181824 50.850967 L 225.954544 50.850967 C 226.27272 54.580643 228.954544 56.809357 232.363632 56.809357 C 235.22728 56.809357 236.818176 55.399353 237.681824 53.670967 L 242.72728 53.670967 C 241.454544 57.582581 237.909088 60.766457 232.363632 60.766457 Z M 226.045456 47.121292 L 238.545456 47.121292 C 238.454544 43.619034 235.72728 41.435806 232.22728 41.435806 C 229.090912 41.435806 226.545456 43.573547 226.045456 47.121292 Z"/>
        <path id="path7" fill="#ffffff" stroke="none" d="M 252.636368 60.448067 L 247.954544 60.448067 L 247.954544 37.888062 L 252.636368 37.888062 L 252.636368 41.162903 C 253.954544 38.888702 256.181824 37.524193 259.409088 37.524193 L 259.409088 42.34549 L 258.227264 42.34549 C 254.77272 42.34549 252.681824 43.800972 252.681824 48.576775 L 252.681824 60.448067 Z"/>
        <path id="path8" fill="#ffffff" stroke="none" d="M 273.363647 60.811928 C 266.909088 60.811928 262.090912 56.218071 262.090912 49.122574 C 262.090912 42.027092 266.681824 37.478706 273.363647 37.478706 C 280.045471 37.478706 284.318176 41.936134 284.318176 48.576775 C 284.318176 49.349998 284.318176 50.077744 284.136353 50.850967 L 266.909088 50.850967 C 267.227264 54.580643 269.909088 56.809357 273.318176 56.809357 C 276.181824 56.809357 277.772736 55.399353 278.636353 53.670967 L 283.681824 53.670967 C 282.409088 57.582581 278.863617 60.766457 273.318176 60.766457 Z M 267 47.121292 L 279.5 47.121292 C 279.409088 43.619034 276.681824 41.435806 273.181824 41.435806 C 270.045441 41.435806 267.5 43.573547 267 47.121292 Z"/>
        <path id="path9" fill="#ffffff" stroke="none" d="M 298.045441 37.524193 C 301 37.524193 304.090912 38.934196 305.818176 41.026451 L 305.818176 30.155815 L 310.545441 30.155815 L 310.545441 60.448067 L 305.818176 60.448067 L 305.818176 57.036781 C 304.363617 59.083549 301.681824 60.811928 298 60.811928 C 292.045441 60.811928 287.363647 56.036125 287.363647 49.077103 C 287.363647 42.118065 292.090912 37.524193 298.045441 37.524193 Z M 299 41.572258 C 295.545441 41.572258 292.181824 44.210327 292.181824 49.077103 C 292.181824 53.943871 295.545441 56.76387 299 56.76387 C 302.454559 56.76387 305.818176 54.034843 305.818176 49.168068 C 305.818176 44.301292 302.5 41.572258 299 41.572258 Z"/>
        <path id="path10" fill="#ffffff" stroke="none" d="M 339.818207 37.524193 C 345.772736 37.524193 350.409088 42.118065 350.409088 49.077103 C 350.409088 56.036125 345.727264 60.811928 339.818207 60.811928 C 336.090912 60.811928 333.454559 59.129036 331.954529 57.173225 L 331.954529 60.448067 L 327.272736 60.448067 L 327.272736 30.155815 L 331.954529 30.155815 L 331.954529 41.253868 C 333.409088 39.207092 336.272736 37.524193 339.818207 37.524193 Z M 338.772736 41.572258 C 335.272736 41.572258 331.954529 44.301292 331.954529 49.168068 C 331.954529 54.034843 335.318176 56.76387 338.772736 56.76387 C 342.227264 56.76387 345.636383 53.943871 345.636383 49.077103 C 345.636383 44.210327 342.272736 41.572258 338.772736 41.572258 Z"/>
        <path id="path11" fill="#ffffff" stroke="none" d="M 370.5 37.888062 L 375.318176 37.888062 L 361.5 71.045807 L 356.681824 71.045807 L 361.272736 60.08419 L 352.409088 37.888062 L 357.590912 37.888062 L 363.954529 55.080971 L 370.545441 37.888062 Z"/>
        <path id="path12" fill="#ffffff" stroke="none" d="M 175.454544 85.782585 L 164.409088 85.782585 L 164.409088 94.151611 L 174.22728 94.151611 L 174.22728 97.97226 L 164.409088 97.97226 L 164.409088 106.705154 L 175.454544 106.705154 L 175.454544 110.525803 L 159.727264 110.525803 L 159.727264 82.007423 L 175.454544 82.007423 L 175.454544 85.828064 Z"/>
        <path id="path13" fill="#ffffff" stroke="none" d="M 190.681824 87.55645 C 196.227264 87.55645 199.818176 90.285484 201.090912 95.061287 L 196.045456 95.061287 C 195.27272 92.878067 193.454559 91.51355 190.681824 91.51355 C 186.909088 91.51355 184.409088 94.288063 184.409088 99.200317 C 184.409088 104.112579 186.909088 106.932587 190.681824 106.932587 C 193.454559 106.932587 195.181808 105.704514 196.045456 103.384842 L 201.090912 103.384842 C 199.818176 107.796776 196.227264 110.889671 190.681824 110.889671 C 184.227264 110.889671 179.636368 106.295807 179.636368 99.200317 C 179.636368 92.104843 184.227264 87.55645 190.681824 87.55645 Z"/>
        <path id="path14" fill="#ffffff" stroke="none" d="M 205.727264 80.188065 L 210.409088 80.188065 L 210.409088 90.558388 C 211.954544 88.69355 214.5 87.55645 217.409103 87.55645 C 222.454544 87.55645 226.363632 90.87677 226.363632 97.199036 L 226.363632 110.525803 L 221.727264 110.525803 L 221.727264 97.926773 C 221.727264 93.78775 219.454544 91.649994 216.090912 91.649994 C 212.727264 91.649994 210.409088 93.78775 210.409088 97.926773 L 210.409088 110.525803 L 205.727264 110.525803 L 205.727264 80.233551 Z"/>
        <path id="path15" fill="#ffffff" stroke="none" d="M 242.045456 110.8442 C 235.636368 110.8442 230.727264 106.25032 230.727264 99.154831 C 230.727264 92.059357 235.818192 87.510971 242.22728 87.510971 C 248.636368 87.510971 253.727264 92.059357 253.727264 99.154831 C 253.727264 106.25032 248.499985 110.8442 242.045456 110.8442 Z M 242.045456 106.796127 C 245.5 106.796127 248.954544 104.294518 248.954544 99.200317 C 248.954544 94.106133 245.636368 91.604515 242.136368 91.604515 C 238.636368 91.604515 235.454544 94.060646 235.454544 99.200317 C 235.454544 104.340004 238.5 106.796127 242.000015 106.796127 Z"/>
        <path id="path16" fill="#ffffff" stroke="none" d="M 258.363647 82.007423 L 275.090912 82.007423 L 275.090912 85.828064 L 263 85.828064 L 263 94.242577 L 272.409088 94.242577 L 272.409088 98.063225 L 263 98.063225 L 263 110.525803 L 258.318176 110.525803 L 258.318176 82.052902 Z"/>
        <path id="path17" fill="#ffffff" stroke="none" d="M 289.136353 110.8442 C 282.681824 110.8442 277.863647 106.25032 277.863647 99.154831 C 277.863647 92.059357 282.454529 87.510971 289.136353 87.510971 C 295.818176 87.510971 300.090881 91.968384 300.090881 98.609039 C 300.090881 99.382263 300.090881 100.110001 299.909119 100.883224 L 282.681824 100.883224 C 283 104.6129 285.681824 106.841614 289.090912 106.841614 C 291.954559 106.841614 293.545471 105.43161 294.409088 103.703224 L 299.454529 103.703224 C 298.181824 107.614838 294.636353 110.798714 289.090912 110.798714 Z M 282.727264 97.153549 L 295.227264 97.153549 C 295.136353 93.651291 292.409088 91.468063 288.909088 91.468063 C 285.772736 91.468063 283.227264 93.605804 282.727264 97.153549 Z"/>
        <path id="path18" fill="#ffffff" stroke="none" d="M 314.363647 110.8442 C 307.909088 110.8442 303.090912 106.25032 303.090912 99.154831 C 303.090912 92.059357 307.681824 87.510971 314.363647 87.510971 C 321.045441 87.510971 325.318176 91.968384 325.318176 98.609039 C 325.318176 99.382263 325.318176 100.110001 325.136353 100.883224 L 307.909088 100.883224 C 308.227264 104.6129 310.909088 106.841614 314.318176 106.841614 C 317.181824 106.841614 318.772705 105.43161 319.636353 103.703224 L 324.681824 103.703224 C 323.409088 107.614838 319.863647 110.798714 314.318176 110.798714 Z M 308 97.153549 L 320.5 97.153549 C 320.409088 93.651291 317.681824 91.468063 314.181824 91.468063 C 311.045441 91.468063 308.5 93.605804 308 97.153549 Z"/>
        <path id="path19" fill="#ffffff" stroke="none" d="M 339.045441 87.55645 C 342 87.55645 345.090912 88.966446 346.818207 91.058716 L 346.818207 80.188065 L 351.545441 80.188065 L 351.545441 110.480331 L 346.818207 110.480331 L 346.818207 107.069031 C 345.363647 109.115807 342.681824 110.8442 339 110.8442 C 333.045441 110.8442 328.363617 106.06839 328.363617 99.10936 C 328.363617 92.150322 333.090912 87.55645 339.045441 87.55645 Z M 340 91.604515 C 336.545471 91.604515 333.181824 94.242577 333.181824 99.10936 C 333.181824 103.976135 336.545471 106.796127 340 106.796127 C 343.454529 106.796127 346.818207 104.067093 346.818207 99.200317 C 346.818207 94.333542 343.5 91.604515 340 91.604515 Z"/>
    </g>
    <g id="Image">
        <path id="path20" fill="#ffffff" stroke="none" d="M 28.590908 80.233551 C 26.227272 80.233551 24.318182 78.323227 24.318182 75.958069 L 24.318182 64.996452 C 24.318182 62.631294 26.227272 60.72097 28.590908 60.72097 C 30.954546 60.72097 32.863636 62.631294 32.863636 64.996452 L 32.863636 75.958069 C 32.863636 78.323227 30.954546 80.233551 28.590908 80.233551 Z"/>
        <path id="path21" fill="#ffffff" stroke="none" d="M 42.909088 84.781937 C 40.545456 84.781937 38.636364 82.871613 38.636364 80.506454 L 38.636364 60.493546 C 38.636364 58.12838 40.545456 56.218071 42.909088 56.218071 C 45.272728 56.218071 47.18182 58.12838 47.18182 60.493546 L 47.18182 80.506454 C 47.18182 82.871613 45.272728 84.781937 42.909088 84.781937 Z"/>
        <path id="path22" fill="#ffffff" stroke="none" d="M 57.227272 98.745483 C 54.863636 98.745483 52.954544 96.835167 52.954544 94.470001 L 52.954544 46.48452 C 52.954544 44.119362 54.863636 42.20903 57.227272 42.20903 C 59.590908 42.20903 61.5 44.119362 61.5 46.48452 L 61.5 94.470001 C 61.5 96.835167 59.590908 98.745483 57.227272 98.745483 Z"/>
        <path id="path23" fill="#ffffff" stroke="none" d="M 71.545456 108.069679 C 69.181816 108.069679 67.272728 106.159355 67.272728 103.794189 L 67.272728 37.205811 C 67.272728 34.840645 69.181816 32.930321 71.545456 32.930321 C 73.909096 32.930321 75.818184 34.840645 75.818184 37.205811 L 75.818184 103.794189 C 75.818184 106.159355 73.909096 108.069679 71.545456 108.069679 Z"/>
        <path id="path24" fill="#ffffff" stroke="none" d="M 85.863632 89.057419 C 83.5 89.057419 81.590912 87.147095 81.590912 84.781937 L 81.590912 56.218071 C 81.590912 53.852905 83.5 51.942581 85.863632 51.942581 C 88.227272 51.942581 90.13636 53.852905 90.13636 56.218071 L 90.13636 84.781937 C 90.13636 87.147095 88.227272 89.057419 85.863632 89.057419 Z"/>
        <path id="path25" fill="#ffffff" stroke="none" d="M 100.181824 98.745483 C 97.818184 98.745483 95.909096 96.835167 95.909096 94.470001 L 95.909096 46.48452 C 95.909096 44.119362 97.818184 42.20903 100.181824 42.20903 C 102.545448 42.20903 104.454544 44.119362 104.454544 46.48452 L 104.454544 94.470001 C 104.454544 96.835167 102.545448 98.745483 100.181824 98.745483 Z"/>
        <path id="path26" fill="#ffffff" stroke="none" d="M 114.5 84.781937 C 112.13636 84.781937 110.227272 82.871613 110.227272 80.506454 L 110.227272 60.493546 C 110.227272 58.12838 112.13636 56.218071 114.5 56.218071 C 116.863632 56.218071 118.77272 58.12838 118.77272 60.493546 L 118.77272 80.506454 C 118.77272 82.871613 116.863632 84.781937 114.5 84.781937 Z"/>
    </g>
</svg>
