<?xml version="1.0" standalone="no"?>
<!DOCTYPE svg PUBLIC "-//W3C//DTD SVG 20010904//EN"
 "http://www.w3.org/TR/2001/REC-SVG-20010904/DTD/svg10.dtd">
<svg version="1.0" xmlns="http://www.w3.org/2000/svg"
 width="260.000000pt" height="260.000000pt" viewBox="0 0 260.000000 260.000000"
 preserveAspectRatio="xMidYMid meet">
<metadata>
Created by potrace 1.14, written by Peter Selinger 2001-2017
</metadata>
<g transform="translate(0.000000,260.000000) scale(0.100000,-0.100000)"
fill="#000000" stroke="none">
<path d="M0 1300 l0 -1300 1300 0 1300 0 0 1300 0 1300 -1300 0 -1300 0 0
-1300z m1365 419 c97 -18 185 -75 227 -147 l18 -30 -33 -21 c-30 -20 -33 -20
-42 -3 -5 9 -28 35 -51 58 -106 106 -311 94 -415 -23 -189 -216 -67 -586 200
-610 93 -9 163 18 235 90 56 56 60 58 87 46 35 -14 36 -24 4 -71 -68 -100
-242 -163 -377 -137 -112 22 -222 115 -280 236 -134 283 45 605 348 622 11 0
47 -4 79 -10z m-995 -389 l0 -390 245 0 245 0 0 -35 0 -35 -285 0 -285 0 0
425 0 425 40 0 40 0 0 -390z m1833 375 c168 -70 220 -294 101 -434 -64 -75
-95 -84 -286 -89 l-168 -4 0 -154 0 -154 -40 0 -40 0 0 425 0 425 199 0 c154
0 207 -3 234 -15z"/>
<path d="M1850 1455 l0 -195 150 0 c170 0 202 8 243 62 85 111 37 282 -90 317
-21 6 -98 11 -170 11 l-133 0 0 -195z"/>
</g>
</svg>
